G04 #@! TF.GenerationSoftware,KiCad,Pcbnew,(5.0.2-5-10.14)*
G04 #@! TF.CreationDate,2019-03-11T15:43:47+02:00*
G04 #@! TF.ProjectId,1_proto,315f7072-6f74-46f2-9e6b-696361645f70,rev?*
G04 #@! TF.SameCoordinates,Original*
G04 #@! TF.FileFunction,Legend,Bot*
G04 #@! TF.FilePolarity,Positive*
%FSLAX46Y46*%
G04 Gerber Fmt 4.6, Leading zero omitted, Abs format (unit mm)*
G04 Created by KiCad (PCBNEW (5.0.2-5-10.14)) date Monday, March 11, 2019 at 03:43:47 PM*
%MOMM*%
%LPD*%
G01*
G04 APERTURE LIST*
%ADD10C,0.300000*%
%ADD11C,0.381000*%
%ADD12C,0.010000*%
%ADD13C,0.203200*%
G04 APERTURE END LIST*
D10*
X57892827Y-122654761D02*
X58440446Y-121702380D01*
X59035684Y-122654761D02*
X58785684Y-120654761D01*
X58023779Y-120654761D01*
X57845208Y-120750000D01*
X57761875Y-120845238D01*
X57690446Y-121035714D01*
X57726160Y-121321428D01*
X57845208Y-121511904D01*
X57952351Y-121607142D01*
X58154732Y-121702380D01*
X58916636Y-121702380D01*
X56261875Y-122559523D02*
X56464255Y-122654761D01*
X56845208Y-122654761D01*
X57023779Y-122559523D01*
X57095208Y-122369047D01*
X56999970Y-121607142D01*
X56880922Y-121416666D01*
X56678541Y-121321428D01*
X56297589Y-121321428D01*
X56119017Y-121416666D01*
X56047589Y-121607142D01*
X56071398Y-121797619D01*
X57047589Y-121988095D01*
X55345208Y-121321428D02*
X55035684Y-122654761D01*
X54392827Y-121321428D01*
X51642827Y-120654761D02*
X51452351Y-120654761D01*
X51273779Y-120750000D01*
X51190446Y-120845238D01*
X51119017Y-121035714D01*
X51071398Y-121416666D01*
X51130922Y-121892857D01*
X51273779Y-122273809D01*
X51392827Y-122464285D01*
X51499970Y-122559523D01*
X51702351Y-122654761D01*
X51892827Y-122654761D01*
X52071398Y-122559523D01*
X52154732Y-122464285D01*
X52226160Y-122273809D01*
X52273779Y-121892857D01*
X52214255Y-121416666D01*
X52071398Y-121035714D01*
X51952351Y-120845238D01*
X51845208Y-120750000D01*
X51642827Y-120654761D01*
X50345208Y-122464285D02*
X50261875Y-122559523D01*
X50369017Y-122654761D01*
X50452351Y-122559523D01*
X50345208Y-122464285D01*
X50369017Y-122654761D01*
X48369017Y-122654761D02*
X49511875Y-122654761D01*
X48940446Y-122654761D02*
X48690446Y-120654761D01*
X48916636Y-120940476D01*
X49130922Y-121130952D01*
X49333303Y-121226190D01*
D11*
G04 #@! TO.C,K28*
X144350000Y-133928000D02*
X144350000Y-132150000D01*
X144350000Y-144850000D02*
X144350000Y-143072000D01*
X142572000Y-144850000D02*
X144350000Y-144850000D01*
X131650000Y-144850000D02*
X133428000Y-144850000D01*
X131650000Y-143072000D02*
X131650000Y-144850000D01*
X131650000Y-132150000D02*
X131650000Y-133928000D01*
X133428000Y-132150000D02*
X131650000Y-132150000D01*
X144350000Y-132150000D02*
X142572000Y-132150000D01*
G04 #@! TO.C,K24*
X163350000Y-132150000D02*
X161572000Y-132150000D01*
X152428000Y-132150000D02*
X150650000Y-132150000D01*
X150650000Y-132150000D02*
X150650000Y-133928000D01*
X150650000Y-143072000D02*
X150650000Y-144850000D01*
X150650000Y-144850000D02*
X152428000Y-144850000D01*
X161572000Y-144850000D02*
X163350000Y-144850000D01*
X163350000Y-144850000D02*
X163350000Y-143072000D01*
X163350000Y-133928000D02*
X163350000Y-132150000D01*
G04 #@! TO.C,K24-A1*
X153850000Y-133928000D02*
X153850000Y-132150000D01*
X153850000Y-144850000D02*
X153850000Y-143072000D01*
X152072000Y-144850000D02*
X153850000Y-144850000D01*
X141150000Y-144850000D02*
X142928000Y-144850000D01*
X141150000Y-143072000D02*
X141150000Y-144850000D01*
X141150000Y-132150000D02*
X141150000Y-133928000D01*
X142928000Y-132150000D02*
X141150000Y-132150000D01*
X153850000Y-132150000D02*
X152072000Y-132150000D01*
G04 #@! TO.C,K10*
X220350000Y-94150000D02*
X218572000Y-94150000D01*
X209428000Y-94150000D02*
X207650000Y-94150000D01*
X207650000Y-94150000D02*
X207650000Y-95928000D01*
X207650000Y-105072000D02*
X207650000Y-106850000D01*
X207650000Y-106850000D02*
X209428000Y-106850000D01*
X218572000Y-106850000D02*
X220350000Y-106850000D01*
X220350000Y-106850000D02*
X220350000Y-105072000D01*
X220350000Y-95928000D02*
X220350000Y-94150000D01*
G04 #@! TO.C,K11*
X220350000Y-113150000D02*
X218572000Y-113150000D01*
X209428000Y-113150000D02*
X207650000Y-113150000D01*
X207650000Y-113150000D02*
X207650000Y-114928000D01*
X207650000Y-124072000D02*
X207650000Y-125850000D01*
X207650000Y-125850000D02*
X209428000Y-125850000D01*
X218572000Y-125850000D02*
X220350000Y-125850000D01*
X220350000Y-125850000D02*
X220350000Y-124072000D01*
X220350000Y-114928000D02*
X220350000Y-113150000D01*
G04 #@! TO.C,K12*
X220350000Y-132150000D02*
X218572000Y-132150000D01*
X209428000Y-132150000D02*
X207650000Y-132150000D01*
X207650000Y-132150000D02*
X207650000Y-133928000D01*
X207650000Y-143072000D02*
X207650000Y-144850000D01*
X207650000Y-144850000D02*
X209428000Y-144850000D01*
X218572000Y-144850000D02*
X220350000Y-144850000D01*
X220350000Y-144850000D02*
X220350000Y-143072000D01*
X220350000Y-133928000D02*
X220350000Y-132150000D01*
G04 #@! TO.C,K13*
X201350000Y-75150000D02*
X199572000Y-75150000D01*
X190428000Y-75150000D02*
X188650000Y-75150000D01*
X188650000Y-75150000D02*
X188650000Y-76928000D01*
X188650000Y-86072000D02*
X188650000Y-87850000D01*
X188650000Y-87850000D02*
X190428000Y-87850000D01*
X199572000Y-87850000D02*
X201350000Y-87850000D01*
X201350000Y-87850000D02*
X201350000Y-86072000D01*
X201350000Y-76928000D02*
X201350000Y-75150000D01*
G04 #@! TO.C,K14*
X201350000Y-94150000D02*
X199572000Y-94150000D01*
X190428000Y-94150000D02*
X188650000Y-94150000D01*
X188650000Y-94150000D02*
X188650000Y-95928000D01*
X188650000Y-105072000D02*
X188650000Y-106850000D01*
X188650000Y-106850000D02*
X190428000Y-106850000D01*
X199572000Y-106850000D02*
X201350000Y-106850000D01*
X201350000Y-106850000D02*
X201350000Y-105072000D01*
X201350000Y-95928000D02*
X201350000Y-94150000D01*
G04 #@! TO.C,K15*
X201350000Y-113150000D02*
X199572000Y-113150000D01*
X190428000Y-113150000D02*
X188650000Y-113150000D01*
X188650000Y-113150000D02*
X188650000Y-114928000D01*
X188650000Y-124072000D02*
X188650000Y-125850000D01*
X188650000Y-125850000D02*
X190428000Y-125850000D01*
X199572000Y-125850000D02*
X201350000Y-125850000D01*
X201350000Y-125850000D02*
X201350000Y-124072000D01*
X201350000Y-114928000D02*
X201350000Y-113150000D01*
G04 #@! TO.C,K16*
X201350000Y-132150000D02*
X199572000Y-132150000D01*
X190428000Y-132150000D02*
X188650000Y-132150000D01*
X188650000Y-132150000D02*
X188650000Y-133928000D01*
X188650000Y-143072000D02*
X188650000Y-144850000D01*
X188650000Y-144850000D02*
X190428000Y-144850000D01*
X199572000Y-144850000D02*
X201350000Y-144850000D01*
X201350000Y-144850000D02*
X201350000Y-143072000D01*
X201350000Y-133928000D02*
X201350000Y-132150000D01*
G04 #@! TO.C,K17*
X182350000Y-75150000D02*
X180572000Y-75150000D01*
X171428000Y-75150000D02*
X169650000Y-75150000D01*
X169650000Y-75150000D02*
X169650000Y-76928000D01*
X169650000Y-86072000D02*
X169650000Y-87850000D01*
X169650000Y-87850000D02*
X171428000Y-87850000D01*
X180572000Y-87850000D02*
X182350000Y-87850000D01*
X182350000Y-87850000D02*
X182350000Y-86072000D01*
X182350000Y-76928000D02*
X182350000Y-75150000D01*
G04 #@! TO.C,K18*
X182350000Y-94150000D02*
X180572000Y-94150000D01*
X171428000Y-94150000D02*
X169650000Y-94150000D01*
X169650000Y-94150000D02*
X169650000Y-95928000D01*
X169650000Y-105072000D02*
X169650000Y-106850000D01*
X169650000Y-106850000D02*
X171428000Y-106850000D01*
X180572000Y-106850000D02*
X182350000Y-106850000D01*
X182350000Y-106850000D02*
X182350000Y-105072000D01*
X182350000Y-95928000D02*
X182350000Y-94150000D01*
G04 #@! TO.C,K19*
X182350000Y-113150000D02*
X180572000Y-113150000D01*
X171428000Y-113150000D02*
X169650000Y-113150000D01*
X169650000Y-113150000D02*
X169650000Y-114928000D01*
X169650000Y-124072000D02*
X169650000Y-125850000D01*
X169650000Y-125850000D02*
X171428000Y-125850000D01*
X180572000Y-125850000D02*
X182350000Y-125850000D01*
X182350000Y-125850000D02*
X182350000Y-124072000D01*
X182350000Y-114928000D02*
X182350000Y-113150000D01*
G04 #@! TO.C,K20*
X182350000Y-132150000D02*
X180572000Y-132150000D01*
X171428000Y-132150000D02*
X169650000Y-132150000D01*
X169650000Y-132150000D02*
X169650000Y-133928000D01*
X169650000Y-143072000D02*
X169650000Y-144850000D01*
X169650000Y-144850000D02*
X171428000Y-144850000D01*
X180572000Y-144850000D02*
X182350000Y-144850000D01*
X182350000Y-144850000D02*
X182350000Y-143072000D01*
X182350000Y-133928000D02*
X182350000Y-132150000D01*
G04 #@! TO.C,K21*
X163350000Y-75150000D02*
X161572000Y-75150000D01*
X152428000Y-75150000D02*
X150650000Y-75150000D01*
X150650000Y-75150000D02*
X150650000Y-76928000D01*
X150650000Y-86072000D02*
X150650000Y-87850000D01*
X150650000Y-87850000D02*
X152428000Y-87850000D01*
X161572000Y-87850000D02*
X163350000Y-87850000D01*
X163350000Y-87850000D02*
X163350000Y-86072000D01*
X163350000Y-76928000D02*
X163350000Y-75150000D01*
G04 #@! TO.C,K22*
X163350000Y-94150000D02*
X161572000Y-94150000D01*
X152428000Y-94150000D02*
X150650000Y-94150000D01*
X150650000Y-94150000D02*
X150650000Y-95928000D01*
X150650000Y-105072000D02*
X150650000Y-106850000D01*
X150650000Y-106850000D02*
X152428000Y-106850000D01*
X161572000Y-106850000D02*
X163350000Y-106850000D01*
X163350000Y-106850000D02*
X163350000Y-105072000D01*
X163350000Y-95928000D02*
X163350000Y-94150000D01*
G04 #@! TO.C,K23*
X163350000Y-113150000D02*
X161572000Y-113150000D01*
X152428000Y-113150000D02*
X150650000Y-113150000D01*
X150650000Y-113150000D02*
X150650000Y-114928000D01*
X150650000Y-124072000D02*
X150650000Y-125850000D01*
X150650000Y-125850000D02*
X152428000Y-125850000D01*
X161572000Y-125850000D02*
X163350000Y-125850000D01*
X163350000Y-125850000D02*
X163350000Y-124072000D01*
X163350000Y-114928000D02*
X163350000Y-113150000D01*
G04 #@! TO.C,K25*
X144350000Y-76928000D02*
X144350000Y-75150000D01*
X144350000Y-87850000D02*
X144350000Y-86072000D01*
X142572000Y-87850000D02*
X144350000Y-87850000D01*
X131650000Y-87850000D02*
X133428000Y-87850000D01*
X131650000Y-86072000D02*
X131650000Y-87850000D01*
X131650000Y-75150000D02*
X131650000Y-76928000D01*
X133428000Y-75150000D02*
X131650000Y-75150000D01*
X144350000Y-75150000D02*
X142572000Y-75150000D01*
G04 #@! TO.C,K26*
X144350000Y-95928000D02*
X144350000Y-94150000D01*
X144350000Y-106850000D02*
X144350000Y-105072000D01*
X142572000Y-106850000D02*
X144350000Y-106850000D01*
X131650000Y-106850000D02*
X133428000Y-106850000D01*
X131650000Y-105072000D02*
X131650000Y-106850000D01*
X131650000Y-94150000D02*
X131650000Y-95928000D01*
X133428000Y-94150000D02*
X131650000Y-94150000D01*
X144350000Y-94150000D02*
X142572000Y-94150000D01*
G04 #@! TO.C,K27*
X144350000Y-114928000D02*
X144350000Y-113150000D01*
X144350000Y-125850000D02*
X144350000Y-124072000D01*
X142572000Y-125850000D02*
X144350000Y-125850000D01*
X131650000Y-125850000D02*
X133428000Y-125850000D01*
X131650000Y-124072000D02*
X131650000Y-125850000D01*
X131650000Y-113150000D02*
X131650000Y-114928000D01*
X133428000Y-113150000D02*
X131650000Y-113150000D01*
X144350000Y-113150000D02*
X142572000Y-113150000D01*
G04 #@! TO.C,K29*
X125350000Y-76928000D02*
X125350000Y-75150000D01*
X125350000Y-87850000D02*
X125350000Y-86072000D01*
X123572000Y-87850000D02*
X125350000Y-87850000D01*
X112650000Y-87850000D02*
X114428000Y-87850000D01*
X112650000Y-86072000D02*
X112650000Y-87850000D01*
X112650000Y-75150000D02*
X112650000Y-76928000D01*
X114428000Y-75150000D02*
X112650000Y-75150000D01*
X125350000Y-75150000D02*
X123572000Y-75150000D01*
G04 #@! TO.C,K30*
X125350000Y-95928000D02*
X125350000Y-94150000D01*
X125350000Y-106850000D02*
X125350000Y-105072000D01*
X123572000Y-106850000D02*
X125350000Y-106850000D01*
X112650000Y-106850000D02*
X114428000Y-106850000D01*
X112650000Y-105072000D02*
X112650000Y-106850000D01*
X112650000Y-94150000D02*
X112650000Y-95928000D01*
X114428000Y-94150000D02*
X112650000Y-94150000D01*
X125350000Y-94150000D02*
X123572000Y-94150000D01*
G04 #@! TO.C,K31*
X125350000Y-114928000D02*
X125350000Y-113150000D01*
X125350000Y-125850000D02*
X125350000Y-124072000D01*
X123572000Y-125850000D02*
X125350000Y-125850000D01*
X112650000Y-125850000D02*
X114428000Y-125850000D01*
X112650000Y-124072000D02*
X112650000Y-125850000D01*
X112650000Y-113150000D02*
X112650000Y-114928000D01*
X114428000Y-113150000D02*
X112650000Y-113150000D01*
X125350000Y-113150000D02*
X123572000Y-113150000D01*
G04 #@! TO.C,K32*
X125350000Y-133928000D02*
X125350000Y-132150000D01*
X125350000Y-144850000D02*
X125350000Y-143072000D01*
X123572000Y-144850000D02*
X125350000Y-144850000D01*
X112650000Y-144850000D02*
X114428000Y-144850000D01*
X112650000Y-143072000D02*
X112650000Y-144850000D01*
X112650000Y-132150000D02*
X112650000Y-133928000D01*
X114428000Y-132150000D02*
X112650000Y-132150000D01*
X125350000Y-132150000D02*
X123572000Y-132150000D01*
G04 #@! TO.C,K33*
X106350000Y-76928000D02*
X106350000Y-75150000D01*
X106350000Y-87850000D02*
X106350000Y-86072000D01*
X104572000Y-87850000D02*
X106350000Y-87850000D01*
X93650000Y-87850000D02*
X95428000Y-87850000D01*
X93650000Y-86072000D02*
X93650000Y-87850000D01*
X93650000Y-75150000D02*
X93650000Y-76928000D01*
X95428000Y-75150000D02*
X93650000Y-75150000D01*
X106350000Y-75150000D02*
X104572000Y-75150000D01*
G04 #@! TO.C,K34*
X106350000Y-95928000D02*
X106350000Y-94150000D01*
X106350000Y-106850000D02*
X106350000Y-105072000D01*
X104572000Y-106850000D02*
X106350000Y-106850000D01*
X93650000Y-106850000D02*
X95428000Y-106850000D01*
X93650000Y-105072000D02*
X93650000Y-106850000D01*
X93650000Y-94150000D02*
X93650000Y-95928000D01*
X95428000Y-94150000D02*
X93650000Y-94150000D01*
X106350000Y-94150000D02*
X104572000Y-94150000D01*
G04 #@! TO.C,K35*
X106350000Y-114928000D02*
X106350000Y-113150000D01*
X106350000Y-125850000D02*
X106350000Y-124072000D01*
X104572000Y-125850000D02*
X106350000Y-125850000D01*
X93650000Y-125850000D02*
X95428000Y-125850000D01*
X93650000Y-124072000D02*
X93650000Y-125850000D01*
X93650000Y-113150000D02*
X93650000Y-114928000D01*
X95428000Y-113150000D02*
X93650000Y-113150000D01*
X106350000Y-113150000D02*
X104572000Y-113150000D01*
G04 #@! TO.C,K36*
X106350000Y-133928000D02*
X106350000Y-132150000D01*
X106350000Y-144850000D02*
X106350000Y-143072000D01*
X104572000Y-144850000D02*
X106350000Y-144850000D01*
X93650000Y-144850000D02*
X95428000Y-144850000D01*
X93650000Y-143072000D02*
X93650000Y-144850000D01*
X93650000Y-132150000D02*
X93650000Y-133928000D01*
X95428000Y-132150000D02*
X93650000Y-132150000D01*
X106350000Y-132150000D02*
X104572000Y-132150000D01*
G04 #@! TO.C,K37*
X87350000Y-76928000D02*
X87350000Y-75150000D01*
X87350000Y-87850000D02*
X87350000Y-86072000D01*
X85572000Y-87850000D02*
X87350000Y-87850000D01*
X74650000Y-87850000D02*
X76428000Y-87850000D01*
X74650000Y-86072000D02*
X74650000Y-87850000D01*
X74650000Y-75150000D02*
X74650000Y-76928000D01*
X76428000Y-75150000D02*
X74650000Y-75150000D01*
X87350000Y-75150000D02*
X85572000Y-75150000D01*
G04 #@! TO.C,K38*
X87350000Y-95928000D02*
X87350000Y-94150000D01*
X87350000Y-106850000D02*
X87350000Y-105072000D01*
X85572000Y-106850000D02*
X87350000Y-106850000D01*
X74650000Y-106850000D02*
X76428000Y-106850000D01*
X74650000Y-105072000D02*
X74650000Y-106850000D01*
X74650000Y-94150000D02*
X74650000Y-95928000D01*
X76428000Y-94150000D02*
X74650000Y-94150000D01*
X87350000Y-94150000D02*
X85572000Y-94150000D01*
G04 #@! TO.C,K39*
X87350000Y-114928000D02*
X87350000Y-113150000D01*
X87350000Y-125850000D02*
X87350000Y-124072000D01*
X85572000Y-125850000D02*
X87350000Y-125850000D01*
X74650000Y-125850000D02*
X76428000Y-125850000D01*
X74650000Y-124072000D02*
X74650000Y-125850000D01*
X74650000Y-113150000D02*
X74650000Y-114928000D01*
X76428000Y-113150000D02*
X74650000Y-113150000D01*
X87350000Y-113150000D02*
X85572000Y-113150000D01*
G04 #@! TO.C,K40*
X87350000Y-133928000D02*
X87350000Y-132150000D01*
X87350000Y-144850000D02*
X87350000Y-143072000D01*
X85572000Y-144850000D02*
X87350000Y-144850000D01*
X74650000Y-144850000D02*
X76428000Y-144850000D01*
X74650000Y-143072000D02*
X74650000Y-144850000D01*
X74650000Y-132150000D02*
X74650000Y-133928000D01*
X76428000Y-132150000D02*
X74650000Y-132150000D01*
X87350000Y-132150000D02*
X85572000Y-132150000D01*
G04 #@! TO.C,K41*
X68350000Y-76928000D02*
X68350000Y-75150000D01*
X68350000Y-87850000D02*
X68350000Y-86072000D01*
X66572000Y-87850000D02*
X68350000Y-87850000D01*
X55650000Y-87850000D02*
X57428000Y-87850000D01*
X55650000Y-86072000D02*
X55650000Y-87850000D01*
X55650000Y-75150000D02*
X55650000Y-76928000D01*
X57428000Y-75150000D02*
X55650000Y-75150000D01*
X68350000Y-75150000D02*
X66572000Y-75150000D01*
G04 #@! TO.C,K42*
X68350000Y-95928000D02*
X68350000Y-94150000D01*
X68350000Y-106850000D02*
X68350000Y-105072000D01*
X66572000Y-106850000D02*
X68350000Y-106850000D01*
X55650000Y-106850000D02*
X57428000Y-106850000D01*
X55650000Y-105072000D02*
X55650000Y-106850000D01*
X55650000Y-94150000D02*
X55650000Y-95928000D01*
X57428000Y-94150000D02*
X55650000Y-94150000D01*
X68350000Y-94150000D02*
X66572000Y-94150000D01*
G04 #@! TO.C,K43*
X68350000Y-114928000D02*
X68350000Y-113150000D01*
X68350000Y-125850000D02*
X68350000Y-124072000D01*
X66572000Y-125850000D02*
X68350000Y-125850000D01*
X55650000Y-125850000D02*
X57428000Y-125850000D01*
X55650000Y-124072000D02*
X55650000Y-125850000D01*
X55650000Y-113150000D02*
X55650000Y-114928000D01*
X57428000Y-113150000D02*
X55650000Y-113150000D01*
X68350000Y-113150000D02*
X66572000Y-113150000D01*
G04 #@! TO.C,K44*
X68350000Y-133928000D02*
X68350000Y-132150000D01*
X68350000Y-144850000D02*
X68350000Y-143072000D01*
X66572000Y-144850000D02*
X68350000Y-144850000D01*
X55650000Y-144850000D02*
X57428000Y-144850000D01*
X55650000Y-143072000D02*
X55650000Y-144850000D01*
X55650000Y-132150000D02*
X55650000Y-133928000D01*
X57428000Y-132150000D02*
X55650000Y-132150000D01*
X68350000Y-132150000D02*
X66572000Y-132150000D01*
G04 #@! TO.C,K45*
X49350000Y-76928000D02*
X49350000Y-75150000D01*
X49350000Y-87850000D02*
X49350000Y-86072000D01*
X47572000Y-87850000D02*
X49350000Y-87850000D01*
X36650000Y-87850000D02*
X38428000Y-87850000D01*
X36650000Y-86072000D02*
X36650000Y-87850000D01*
X36650000Y-75150000D02*
X36650000Y-76928000D01*
X38428000Y-75150000D02*
X36650000Y-75150000D01*
X49350000Y-75150000D02*
X47572000Y-75150000D01*
G04 #@! TO.C,K46*
X49350000Y-95928000D02*
X49350000Y-94150000D01*
X49350000Y-106850000D02*
X49350000Y-105072000D01*
X47572000Y-106850000D02*
X49350000Y-106850000D01*
X36650000Y-106850000D02*
X38428000Y-106850000D01*
X36650000Y-105072000D02*
X36650000Y-106850000D01*
X36650000Y-94150000D02*
X36650000Y-95928000D01*
X38428000Y-94150000D02*
X36650000Y-94150000D01*
X49350000Y-94150000D02*
X47572000Y-94150000D01*
G04 #@! TO.C,K47*
X49350000Y-114928000D02*
X49350000Y-113150000D01*
X49350000Y-125850000D02*
X49350000Y-124072000D01*
X47572000Y-125850000D02*
X49350000Y-125850000D01*
X36650000Y-125850000D02*
X38428000Y-125850000D01*
X36650000Y-124072000D02*
X36650000Y-125850000D01*
X36650000Y-113150000D02*
X36650000Y-114928000D01*
X38428000Y-113150000D02*
X36650000Y-113150000D01*
X49350000Y-113150000D02*
X47572000Y-113150000D01*
G04 #@! TO.C,K48*
X49350000Y-133928000D02*
X49350000Y-132150000D01*
X49350000Y-144850000D02*
X49350000Y-143072000D01*
X47572000Y-144850000D02*
X49350000Y-144850000D01*
X36650000Y-144850000D02*
X38428000Y-144850000D01*
X36650000Y-143072000D02*
X36650000Y-144850000D01*
X36650000Y-132150000D02*
X36650000Y-133928000D01*
X38428000Y-132150000D02*
X36650000Y-132150000D01*
X49350000Y-132150000D02*
X47572000Y-132150000D01*
G04 #@! TO.C,U1*
X242010000Y-104240000D02*
X224230000Y-104240000D01*
X224230000Y-104240000D02*
X224230000Y-73760000D01*
X224230000Y-73760000D02*
X242010000Y-73760000D01*
X242010000Y-73760000D02*
X242010000Y-104240000D01*
X226770000Y-104240000D02*
X226770000Y-101700000D01*
X226770000Y-101700000D02*
X224230000Y-101700000D01*
G04 #@! TO.C,K1*
X258350000Y-75150000D02*
X256572000Y-75150000D01*
X247428000Y-75150000D02*
X245650000Y-75150000D01*
X245650000Y-75150000D02*
X245650000Y-76928000D01*
X245650000Y-86072000D02*
X245650000Y-87850000D01*
X245650000Y-87850000D02*
X247428000Y-87850000D01*
X256572000Y-87850000D02*
X258350000Y-87850000D01*
X258350000Y-87850000D02*
X258350000Y-86072000D01*
X258350000Y-76928000D02*
X258350000Y-75150000D01*
G04 #@! TO.C,K2*
X258350000Y-94150000D02*
X256572000Y-94150000D01*
X247428000Y-94150000D02*
X245650000Y-94150000D01*
X245650000Y-94150000D02*
X245650000Y-95928000D01*
X245650000Y-105072000D02*
X245650000Y-106850000D01*
X245650000Y-106850000D02*
X247428000Y-106850000D01*
X256572000Y-106850000D02*
X258350000Y-106850000D01*
X258350000Y-106850000D02*
X258350000Y-105072000D01*
X258350000Y-95928000D02*
X258350000Y-94150000D01*
G04 #@! TO.C,K3*
X258350000Y-113150000D02*
X256572000Y-113150000D01*
X247428000Y-113150000D02*
X245650000Y-113150000D01*
X245650000Y-113150000D02*
X245650000Y-114928000D01*
X245650000Y-124072000D02*
X245650000Y-125850000D01*
X245650000Y-125850000D02*
X247428000Y-125850000D01*
X256572000Y-125850000D02*
X258350000Y-125850000D01*
X258350000Y-125850000D02*
X258350000Y-124072000D01*
X258350000Y-114928000D02*
X258350000Y-113150000D01*
G04 #@! TO.C,K4*
X258350000Y-132150000D02*
X256572000Y-132150000D01*
X247428000Y-132150000D02*
X245650000Y-132150000D01*
X245650000Y-132150000D02*
X245650000Y-133928000D01*
X245650000Y-143072000D02*
X245650000Y-144850000D01*
X245650000Y-144850000D02*
X247428000Y-144850000D01*
X256572000Y-144850000D02*
X258350000Y-144850000D01*
X258350000Y-144850000D02*
X258350000Y-143072000D01*
X258350000Y-133928000D02*
X258350000Y-132150000D01*
G04 #@! TO.C,K5*
X239350000Y-75150000D02*
X237572000Y-75150000D01*
X228428000Y-75150000D02*
X226650000Y-75150000D01*
X226650000Y-75150000D02*
X226650000Y-76928000D01*
X226650000Y-86072000D02*
X226650000Y-87850000D01*
X226650000Y-87850000D02*
X228428000Y-87850000D01*
X237572000Y-87850000D02*
X239350000Y-87850000D01*
X239350000Y-87850000D02*
X239350000Y-86072000D01*
X239350000Y-76928000D02*
X239350000Y-75150000D01*
G04 #@! TO.C,K6*
X239350000Y-94150000D02*
X237572000Y-94150000D01*
X228428000Y-94150000D02*
X226650000Y-94150000D01*
X226650000Y-94150000D02*
X226650000Y-95928000D01*
X226650000Y-105072000D02*
X226650000Y-106850000D01*
X226650000Y-106850000D02*
X228428000Y-106850000D01*
X237572000Y-106850000D02*
X239350000Y-106850000D01*
X239350000Y-106850000D02*
X239350000Y-105072000D01*
X239350000Y-95928000D02*
X239350000Y-94150000D01*
G04 #@! TO.C,K7*
X239350000Y-113150000D02*
X237572000Y-113150000D01*
X228428000Y-113150000D02*
X226650000Y-113150000D01*
X226650000Y-113150000D02*
X226650000Y-114928000D01*
X226650000Y-124072000D02*
X226650000Y-125850000D01*
X226650000Y-125850000D02*
X228428000Y-125850000D01*
X237572000Y-125850000D02*
X239350000Y-125850000D01*
X239350000Y-125850000D02*
X239350000Y-124072000D01*
X239350000Y-114928000D02*
X239350000Y-113150000D01*
G04 #@! TO.C,K8*
X239350000Y-132150000D02*
X237572000Y-132150000D01*
X228428000Y-132150000D02*
X226650000Y-132150000D01*
X226650000Y-132150000D02*
X226650000Y-133928000D01*
X226650000Y-143072000D02*
X226650000Y-144850000D01*
X226650000Y-144850000D02*
X228428000Y-144850000D01*
X237572000Y-144850000D02*
X239350000Y-144850000D01*
X239350000Y-144850000D02*
X239350000Y-143072000D01*
X239350000Y-133928000D02*
X239350000Y-132150000D01*
G04 #@! TO.C,K9*
X220350000Y-75150000D02*
X218572000Y-75150000D01*
X209428000Y-75150000D02*
X207650000Y-75150000D01*
X207650000Y-75150000D02*
X207650000Y-76928000D01*
X207650000Y-86072000D02*
X207650000Y-87850000D01*
X207650000Y-87850000D02*
X209428000Y-87850000D01*
X218572000Y-87850000D02*
X220350000Y-87850000D01*
X220350000Y-87850000D02*
X220350000Y-86072000D01*
X220350000Y-76928000D02*
X220350000Y-75150000D01*
D12*
G04 #@! TO.C,G\002A\002A\002A*
G36*
X44220000Y-105593334D02*
X42526666Y-105593334D01*
X42526666Y-107286667D01*
X44220000Y-107286667D01*
X44220000Y-108980000D01*
X45913333Y-108980000D01*
X45913333Y-110673334D01*
X47606666Y-110673334D01*
X47606666Y-112366667D01*
X49300000Y-112366667D01*
X49300000Y-114060000D01*
X50993333Y-114060000D01*
X50993333Y-115753334D01*
X57766666Y-115753334D01*
X57766666Y-114060000D01*
X59460000Y-114060000D01*
X59460000Y-112366667D01*
X57766666Y-112366667D01*
X57766666Y-110673334D01*
X56073333Y-110673334D01*
X54380000Y-110673334D01*
X54380000Y-112366667D01*
X50993333Y-112366667D01*
X50993333Y-110673334D01*
X49300000Y-110673334D01*
X49300000Y-108980000D01*
X47606666Y-108980000D01*
X47606666Y-107286667D01*
X50993333Y-107286667D01*
X50993333Y-108980000D01*
X52686666Y-108980000D01*
X52686666Y-110673334D01*
X54380000Y-110673334D01*
X56073333Y-110673334D01*
X56073333Y-108980000D01*
X54380000Y-108980000D01*
X54380000Y-107286667D01*
X52686666Y-107286667D01*
X52686666Y-105593334D01*
X50993333Y-105593334D01*
X50993333Y-103900000D01*
X44220000Y-103900000D01*
X44220000Y-105593334D01*
X44220000Y-105593334D01*
G37*
X44220000Y-105593334D02*
X42526666Y-105593334D01*
X42526666Y-107286667D01*
X44220000Y-107286667D01*
X44220000Y-108980000D01*
X45913333Y-108980000D01*
X45913333Y-110673334D01*
X47606666Y-110673334D01*
X47606666Y-112366667D01*
X49300000Y-112366667D01*
X49300000Y-114060000D01*
X50993333Y-114060000D01*
X50993333Y-115753334D01*
X57766666Y-115753334D01*
X57766666Y-114060000D01*
X59460000Y-114060000D01*
X59460000Y-112366667D01*
X57766666Y-112366667D01*
X57766666Y-110673334D01*
X56073333Y-110673334D01*
X54380000Y-110673334D01*
X54380000Y-112366667D01*
X50993333Y-112366667D01*
X50993333Y-110673334D01*
X49300000Y-110673334D01*
X49300000Y-108980000D01*
X47606666Y-108980000D01*
X47606666Y-107286667D01*
X50993333Y-107286667D01*
X50993333Y-108980000D01*
X52686666Y-108980000D01*
X52686666Y-110673334D01*
X54380000Y-110673334D01*
X56073333Y-110673334D01*
X56073333Y-108980000D01*
X54380000Y-108980000D01*
X54380000Y-107286667D01*
X52686666Y-107286667D01*
X52686666Y-105593334D01*
X50993333Y-105593334D01*
X50993333Y-103900000D01*
X44220000Y-103900000D01*
X44220000Y-105593334D01*
G36*
X57766666Y-105593334D02*
X56073333Y-105593334D01*
X56073333Y-107286667D01*
X57766666Y-107286667D01*
X57766666Y-108980000D01*
X59460000Y-108980000D01*
X59460000Y-110673334D01*
X61153333Y-110673334D01*
X61153333Y-112366667D01*
X62846666Y-112366667D01*
X62846666Y-114060000D01*
X64540000Y-114060000D01*
X64540000Y-115753334D01*
X67926666Y-115753334D01*
X67926666Y-114060000D01*
X66233333Y-114060000D01*
X66233333Y-112366667D01*
X64540000Y-112366667D01*
X64540000Y-110673334D01*
X67926666Y-110673334D01*
X67926666Y-112366667D01*
X69620000Y-112366667D01*
X69620000Y-114060000D01*
X71313333Y-114060000D01*
X71313333Y-115753334D01*
X74700000Y-115753334D01*
X74700000Y-114060000D01*
X73006666Y-114060000D01*
X73006666Y-112366667D01*
X71313333Y-112366667D01*
X71313333Y-110673334D01*
X69620000Y-110673334D01*
X69620000Y-108980000D01*
X67926666Y-108980000D01*
X67926666Y-107286667D01*
X66233333Y-107286667D01*
X64540000Y-107286667D01*
X64540000Y-108980000D01*
X61153333Y-108980000D01*
X61153333Y-107286667D01*
X64540000Y-107286667D01*
X66233333Y-107286667D01*
X66233333Y-105593334D01*
X64540000Y-105593334D01*
X64540000Y-103900000D01*
X57766666Y-103900000D01*
X57766666Y-105593334D01*
X57766666Y-105593334D01*
G37*
X57766666Y-105593334D02*
X56073333Y-105593334D01*
X56073333Y-107286667D01*
X57766666Y-107286667D01*
X57766666Y-108980000D01*
X59460000Y-108980000D01*
X59460000Y-110673334D01*
X61153333Y-110673334D01*
X61153333Y-112366667D01*
X62846666Y-112366667D01*
X62846666Y-114060000D01*
X64540000Y-114060000D01*
X64540000Y-115753334D01*
X67926666Y-115753334D01*
X67926666Y-114060000D01*
X66233333Y-114060000D01*
X66233333Y-112366667D01*
X64540000Y-112366667D01*
X64540000Y-110673334D01*
X67926666Y-110673334D01*
X67926666Y-112366667D01*
X69620000Y-112366667D01*
X69620000Y-114060000D01*
X71313333Y-114060000D01*
X71313333Y-115753334D01*
X74700000Y-115753334D01*
X74700000Y-114060000D01*
X73006666Y-114060000D01*
X73006666Y-112366667D01*
X71313333Y-112366667D01*
X71313333Y-110673334D01*
X69620000Y-110673334D01*
X69620000Y-108980000D01*
X67926666Y-108980000D01*
X67926666Y-107286667D01*
X66233333Y-107286667D01*
X64540000Y-107286667D01*
X64540000Y-108980000D01*
X61153333Y-108980000D01*
X61153333Y-107286667D01*
X64540000Y-107286667D01*
X66233333Y-107286667D01*
X66233333Y-105593334D01*
X64540000Y-105593334D01*
X64540000Y-103900000D01*
X57766666Y-103900000D01*
X57766666Y-105593334D01*
G36*
X67926666Y-105593334D02*
X69620000Y-105593334D01*
X69620000Y-107286667D01*
X76393333Y-107286667D01*
X76393333Y-108980000D01*
X73006666Y-108980000D01*
X73006666Y-110673334D01*
X79780000Y-110673334D01*
X79780000Y-112366667D01*
X76393333Y-112366667D01*
X76393333Y-114060000D01*
X78086666Y-114060000D01*
X78086666Y-115753334D01*
X86553333Y-115753334D01*
X86553333Y-114060000D01*
X84860000Y-114060000D01*
X84860000Y-112366667D01*
X83166666Y-112366667D01*
X83166666Y-110673334D01*
X81473333Y-110673334D01*
X81473333Y-108980000D01*
X79780000Y-108980000D01*
X79780000Y-107286667D01*
X78086666Y-107286667D01*
X78086666Y-105593334D01*
X76393333Y-105593334D01*
X76393333Y-103900000D01*
X67926666Y-103900000D01*
X67926666Y-105593334D01*
X67926666Y-105593334D01*
G37*
X67926666Y-105593334D02*
X69620000Y-105593334D01*
X69620000Y-107286667D01*
X76393333Y-107286667D01*
X76393333Y-108980000D01*
X73006666Y-108980000D01*
X73006666Y-110673334D01*
X79780000Y-110673334D01*
X79780000Y-112366667D01*
X76393333Y-112366667D01*
X76393333Y-114060000D01*
X78086666Y-114060000D01*
X78086666Y-115753334D01*
X86553333Y-115753334D01*
X86553333Y-114060000D01*
X84860000Y-114060000D01*
X84860000Y-112366667D01*
X83166666Y-112366667D01*
X83166666Y-110673334D01*
X81473333Y-110673334D01*
X81473333Y-108980000D01*
X79780000Y-108980000D01*
X79780000Y-107286667D01*
X78086666Y-107286667D01*
X78086666Y-105593334D01*
X76393333Y-105593334D01*
X76393333Y-103900000D01*
X67926666Y-103900000D01*
X67926666Y-105593334D01*
G36*
X88246666Y-105593334D02*
X89940000Y-105593334D01*
X89940000Y-107286667D01*
X96713333Y-107286667D01*
X96713333Y-108980000D01*
X93326666Y-108980000D01*
X93326666Y-110673334D01*
X100100000Y-110673334D01*
X100100000Y-112366667D01*
X96713333Y-112366667D01*
X96713333Y-114060000D01*
X98406666Y-114060000D01*
X98406666Y-115753334D01*
X106873333Y-115753334D01*
X106873333Y-114060000D01*
X105180000Y-114060000D01*
X105180000Y-112366667D01*
X103486666Y-112366667D01*
X103486666Y-110673334D01*
X101793333Y-110673334D01*
X101793333Y-108980000D01*
X100100000Y-108980000D01*
X100100000Y-107286667D01*
X98406666Y-107286667D01*
X98406666Y-105593334D01*
X96713333Y-105593334D01*
X96713333Y-103900000D01*
X88246666Y-103900000D01*
X88246666Y-105593334D01*
X88246666Y-105593334D01*
G37*
X88246666Y-105593334D02*
X89940000Y-105593334D01*
X89940000Y-107286667D01*
X96713333Y-107286667D01*
X96713333Y-108980000D01*
X93326666Y-108980000D01*
X93326666Y-110673334D01*
X100100000Y-110673334D01*
X100100000Y-112366667D01*
X96713333Y-112366667D01*
X96713333Y-114060000D01*
X98406666Y-114060000D01*
X98406666Y-115753334D01*
X106873333Y-115753334D01*
X106873333Y-114060000D01*
X105180000Y-114060000D01*
X105180000Y-112366667D01*
X103486666Y-112366667D01*
X103486666Y-110673334D01*
X101793333Y-110673334D01*
X101793333Y-108980000D01*
X100100000Y-108980000D01*
X100100000Y-107286667D01*
X98406666Y-107286667D01*
X98406666Y-105593334D01*
X96713333Y-105593334D01*
X96713333Y-103900000D01*
X88246666Y-103900000D01*
X88246666Y-105593334D01*
G36*
X108566666Y-114060000D02*
X110260000Y-114060000D01*
X110260000Y-115753334D01*
X118726666Y-115753334D01*
X118726666Y-112366667D01*
X117033333Y-112366667D01*
X117033333Y-110673334D01*
X115340000Y-110673334D01*
X115340000Y-108980000D01*
X113646666Y-108980000D01*
X113646666Y-107286667D01*
X111953333Y-107286667D01*
X111953333Y-105593334D01*
X108566666Y-105593334D01*
X108566666Y-103900000D01*
X105180000Y-103900000D01*
X105180000Y-105593334D01*
X103486666Y-105593334D01*
X103486666Y-108980000D01*
X105180000Y-108980000D01*
X105180000Y-107286667D01*
X110260000Y-107286667D01*
X110260000Y-108980000D01*
X111953333Y-108980000D01*
X111953333Y-110673334D01*
X113646666Y-110673334D01*
X113646666Y-112366667D01*
X108566666Y-112366667D01*
X108566666Y-114060000D01*
X108566666Y-114060000D01*
G37*
X108566666Y-114060000D02*
X110260000Y-114060000D01*
X110260000Y-115753334D01*
X118726666Y-115753334D01*
X118726666Y-112366667D01*
X117033333Y-112366667D01*
X117033333Y-110673334D01*
X115340000Y-110673334D01*
X115340000Y-108980000D01*
X113646666Y-108980000D01*
X113646666Y-107286667D01*
X111953333Y-107286667D01*
X111953333Y-105593334D01*
X108566666Y-105593334D01*
X108566666Y-103900000D01*
X105180000Y-103900000D01*
X105180000Y-105593334D01*
X103486666Y-105593334D01*
X103486666Y-108980000D01*
X105180000Y-108980000D01*
X105180000Y-107286667D01*
X110260000Y-107286667D01*
X110260000Y-108980000D01*
X111953333Y-108980000D01*
X111953333Y-110673334D01*
X113646666Y-110673334D01*
X113646666Y-112366667D01*
X108566666Y-112366667D01*
X108566666Y-114060000D01*
G36*
X108566666Y-110673334D02*
X106873333Y-110673334D01*
X106873333Y-112366667D01*
X108566666Y-112366667D01*
X108566666Y-110673334D01*
X108566666Y-110673334D01*
G37*
X108566666Y-110673334D02*
X106873333Y-110673334D01*
X106873333Y-112366667D01*
X108566666Y-112366667D01*
X108566666Y-110673334D01*
G36*
X120420000Y-105593334D02*
X118726666Y-105593334D01*
X118726666Y-107286667D01*
X117033333Y-107286667D01*
X117033333Y-108980000D01*
X118726666Y-108980000D01*
X118726666Y-110673334D01*
X120420000Y-110673334D01*
X120420000Y-112366667D01*
X122113333Y-112366667D01*
X122113333Y-114060000D01*
X123806666Y-114060000D01*
X123806666Y-115753334D01*
X127193333Y-115753334D01*
X127193333Y-114060000D01*
X125500000Y-114060000D01*
X125500000Y-112366667D01*
X130580000Y-112366667D01*
X130580000Y-114060000D01*
X132273333Y-114060000D01*
X132273333Y-115753334D01*
X135660000Y-115753334D01*
X135660000Y-114060000D01*
X133966666Y-114060000D01*
X133966666Y-112366667D01*
X132273333Y-112366667D01*
X132273333Y-110673334D01*
X130580000Y-110673334D01*
X130580000Y-108980000D01*
X128886666Y-108980000D01*
X127193333Y-108980000D01*
X127193333Y-110673334D01*
X122113333Y-110673334D01*
X122113333Y-108980000D01*
X120420000Y-108980000D01*
X120420000Y-107286667D01*
X125500000Y-107286667D01*
X125500000Y-108980000D01*
X127193333Y-108980000D01*
X128886666Y-108980000D01*
X128886666Y-107286667D01*
X127193333Y-107286667D01*
X127193333Y-105593334D01*
X123806666Y-105593334D01*
X123806666Y-103900000D01*
X120420000Y-103900000D01*
X120420000Y-105593334D01*
X120420000Y-105593334D01*
G37*
X120420000Y-105593334D02*
X118726666Y-105593334D01*
X118726666Y-107286667D01*
X117033333Y-107286667D01*
X117033333Y-108980000D01*
X118726666Y-108980000D01*
X118726666Y-110673334D01*
X120420000Y-110673334D01*
X120420000Y-112366667D01*
X122113333Y-112366667D01*
X122113333Y-114060000D01*
X123806666Y-114060000D01*
X123806666Y-115753334D01*
X127193333Y-115753334D01*
X127193333Y-114060000D01*
X125500000Y-114060000D01*
X125500000Y-112366667D01*
X130580000Y-112366667D01*
X130580000Y-114060000D01*
X132273333Y-114060000D01*
X132273333Y-115753334D01*
X135660000Y-115753334D01*
X135660000Y-114060000D01*
X133966666Y-114060000D01*
X133966666Y-112366667D01*
X132273333Y-112366667D01*
X132273333Y-110673334D01*
X130580000Y-110673334D01*
X130580000Y-108980000D01*
X128886666Y-108980000D01*
X127193333Y-108980000D01*
X127193333Y-110673334D01*
X122113333Y-110673334D01*
X122113333Y-108980000D01*
X120420000Y-108980000D01*
X120420000Y-107286667D01*
X125500000Y-107286667D01*
X125500000Y-108980000D01*
X127193333Y-108980000D01*
X128886666Y-108980000D01*
X128886666Y-107286667D01*
X127193333Y-107286667D01*
X127193333Y-105593334D01*
X123806666Y-105593334D01*
X123806666Y-103900000D01*
X120420000Y-103900000D01*
X120420000Y-105593334D01*
G36*
X130580000Y-107286667D02*
X132273333Y-107286667D01*
X132273333Y-108980000D01*
X133966666Y-108980000D01*
X133966666Y-110673334D01*
X137353333Y-110673334D01*
X137353333Y-112366667D01*
X144126666Y-112366667D01*
X144126666Y-114060000D01*
X145820000Y-114060000D01*
X145820000Y-115753334D01*
X149206666Y-115753334D01*
X149206666Y-114060000D01*
X147513333Y-114060000D01*
X147513333Y-112366667D01*
X145820000Y-112366667D01*
X145820000Y-110673334D01*
X144126666Y-110673334D01*
X144126666Y-108980000D01*
X142433333Y-108980000D01*
X142433333Y-107286667D01*
X140740000Y-107286667D01*
X139046666Y-107286667D01*
X139046666Y-108980000D01*
X135660000Y-108980000D01*
X135660000Y-107286667D01*
X139046666Y-107286667D01*
X140740000Y-107286667D01*
X140740000Y-105593334D01*
X139046666Y-105593334D01*
X139046666Y-103900000D01*
X130580000Y-103900000D01*
X130580000Y-107286667D01*
X130580000Y-107286667D01*
G37*
X130580000Y-107286667D02*
X132273333Y-107286667D01*
X132273333Y-108980000D01*
X133966666Y-108980000D01*
X133966666Y-110673334D01*
X137353333Y-110673334D01*
X137353333Y-112366667D01*
X144126666Y-112366667D01*
X144126666Y-114060000D01*
X145820000Y-114060000D01*
X145820000Y-115753334D01*
X149206666Y-115753334D01*
X149206666Y-114060000D01*
X147513333Y-114060000D01*
X147513333Y-112366667D01*
X145820000Y-112366667D01*
X145820000Y-110673334D01*
X144126666Y-110673334D01*
X144126666Y-108980000D01*
X142433333Y-108980000D01*
X142433333Y-107286667D01*
X140740000Y-107286667D01*
X139046666Y-107286667D01*
X139046666Y-108980000D01*
X135660000Y-108980000D01*
X135660000Y-107286667D01*
X139046666Y-107286667D01*
X140740000Y-107286667D01*
X140740000Y-105593334D01*
X139046666Y-105593334D01*
X139046666Y-103900000D01*
X130580000Y-103900000D01*
X130580000Y-107286667D01*
G36*
X142433333Y-105593334D02*
X144126666Y-105593334D01*
X144126666Y-107286667D01*
X152593333Y-107286667D01*
X152593333Y-108980000D01*
X147513333Y-108980000D01*
X147513333Y-110673334D01*
X149206666Y-110673334D01*
X149206666Y-112366667D01*
X150900000Y-112366667D01*
X150900000Y-114060000D01*
X152593333Y-114060000D01*
X152593333Y-115753334D01*
X162753333Y-115753334D01*
X162753333Y-114060000D01*
X161060000Y-114060000D01*
X161060000Y-112366667D01*
X152593333Y-112366667D01*
X152593333Y-110673334D01*
X157673333Y-110673334D01*
X157673333Y-108980000D01*
X155980000Y-108980000D01*
X155980000Y-107286667D01*
X154286666Y-107286667D01*
X154286666Y-105593334D01*
X152593333Y-105593334D01*
X152593333Y-103900000D01*
X142433333Y-103900000D01*
X142433333Y-105593334D01*
X142433333Y-105593334D01*
G37*
X142433333Y-105593334D02*
X144126666Y-105593334D01*
X144126666Y-107286667D01*
X152593333Y-107286667D01*
X152593333Y-108980000D01*
X147513333Y-108980000D01*
X147513333Y-110673334D01*
X149206666Y-110673334D01*
X149206666Y-112366667D01*
X150900000Y-112366667D01*
X150900000Y-114060000D01*
X152593333Y-114060000D01*
X152593333Y-115753334D01*
X162753333Y-115753334D01*
X162753333Y-114060000D01*
X161060000Y-114060000D01*
X161060000Y-112366667D01*
X152593333Y-112366667D01*
X152593333Y-110673334D01*
X157673333Y-110673334D01*
X157673333Y-108980000D01*
X155980000Y-108980000D01*
X155980000Y-107286667D01*
X154286666Y-107286667D01*
X154286666Y-105593334D01*
X152593333Y-105593334D01*
X152593333Y-103900000D01*
X142433333Y-103900000D01*
X142433333Y-105593334D01*
G36*
X71313333Y-98820000D02*
X74700000Y-98820000D01*
X74700000Y-100513334D01*
X76393333Y-100513334D01*
X76393333Y-102206667D01*
X78086666Y-102206667D01*
X78086666Y-103900000D01*
X79780000Y-103900000D01*
X79780000Y-105593334D01*
X81473333Y-105593334D01*
X81473333Y-107286667D01*
X83166666Y-107286667D01*
X83166666Y-108980000D01*
X84860000Y-108980000D01*
X84860000Y-110673334D01*
X86553333Y-110673334D01*
X86553333Y-112366667D01*
X88246666Y-112366667D01*
X88246666Y-114060000D01*
X89940000Y-114060000D01*
X89940000Y-115753334D01*
X91633333Y-115753334D01*
X91633333Y-117446667D01*
X93326666Y-117446667D01*
X93326666Y-119140000D01*
X74700000Y-119140000D01*
X74700000Y-120833334D01*
X78086666Y-120833334D01*
X78086666Y-122526667D01*
X103486666Y-122526667D01*
X103486666Y-120833334D01*
X100100000Y-120833334D01*
X100100000Y-119140000D01*
X98406666Y-119140000D01*
X98406666Y-117446667D01*
X96713333Y-117446667D01*
X96713333Y-115753334D01*
X95020000Y-115753334D01*
X95020000Y-114060000D01*
X93326666Y-114060000D01*
X93326666Y-112366667D01*
X91633333Y-112366667D01*
X91633333Y-110673334D01*
X89940000Y-110673334D01*
X89940000Y-108980000D01*
X88246666Y-108980000D01*
X88246666Y-107286667D01*
X86553333Y-107286667D01*
X86553333Y-105593334D01*
X84860000Y-105593334D01*
X84860000Y-103900000D01*
X83166666Y-103900000D01*
X83166666Y-102206667D01*
X81473333Y-102206667D01*
X81473333Y-100513334D01*
X100100000Y-100513334D01*
X100100000Y-98820000D01*
X96713333Y-98820000D01*
X96713333Y-97126667D01*
X71313333Y-97126667D01*
X71313333Y-98820000D01*
X71313333Y-98820000D01*
G37*
X71313333Y-98820000D02*
X74700000Y-98820000D01*
X74700000Y-100513334D01*
X76393333Y-100513334D01*
X76393333Y-102206667D01*
X78086666Y-102206667D01*
X78086666Y-103900000D01*
X79780000Y-103900000D01*
X79780000Y-105593334D01*
X81473333Y-105593334D01*
X81473333Y-107286667D01*
X83166666Y-107286667D01*
X83166666Y-108980000D01*
X84860000Y-108980000D01*
X84860000Y-110673334D01*
X86553333Y-110673334D01*
X86553333Y-112366667D01*
X88246666Y-112366667D01*
X88246666Y-114060000D01*
X89940000Y-114060000D01*
X89940000Y-115753334D01*
X91633333Y-115753334D01*
X91633333Y-117446667D01*
X93326666Y-117446667D01*
X93326666Y-119140000D01*
X74700000Y-119140000D01*
X74700000Y-120833334D01*
X78086666Y-120833334D01*
X78086666Y-122526667D01*
X103486666Y-122526667D01*
X103486666Y-120833334D01*
X100100000Y-120833334D01*
X100100000Y-119140000D01*
X98406666Y-119140000D01*
X98406666Y-117446667D01*
X96713333Y-117446667D01*
X96713333Y-115753334D01*
X95020000Y-115753334D01*
X95020000Y-114060000D01*
X93326666Y-114060000D01*
X93326666Y-112366667D01*
X91633333Y-112366667D01*
X91633333Y-110673334D01*
X89940000Y-110673334D01*
X89940000Y-108980000D01*
X88246666Y-108980000D01*
X88246666Y-107286667D01*
X86553333Y-107286667D01*
X86553333Y-105593334D01*
X84860000Y-105593334D01*
X84860000Y-103900000D01*
X83166666Y-103900000D01*
X83166666Y-102206667D01*
X81473333Y-102206667D01*
X81473333Y-100513334D01*
X100100000Y-100513334D01*
X100100000Y-98820000D01*
X96713333Y-98820000D01*
X96713333Y-97126667D01*
X71313333Y-97126667D01*
X71313333Y-98820000D01*
G04 #@! TO.C,U1*
D13*
X230799523Y-87838857D02*
X231827619Y-87838857D01*
X231948571Y-87911428D01*
X232009047Y-87984000D01*
X232069523Y-88129142D01*
X232069523Y-88419428D01*
X232009047Y-88564571D01*
X231948571Y-88637142D01*
X231827619Y-88709714D01*
X230799523Y-88709714D01*
X232069523Y-90233714D02*
X232069523Y-89362857D01*
X232069523Y-89798285D02*
X230799523Y-89798285D01*
X230980952Y-89653142D01*
X231101904Y-89508000D01*
X231162380Y-89362857D01*
G04 #@! TD*
M02*
