M48
;DRILL file {KiCad (5.0.2-5-10.14)} date Monday, March 11, 2019 at 03:43:50 PM
;FORMAT={-:-/ absolute / inch / decimal}
FMAT,2
INCH,TZ
T1C0.0670
T2C0.1570
%
G90
G05
T1
X2.989Y-3.9567
X3.389Y-3.9567
X2.2409Y-3.9567
X2.6409Y-3.9567
X8.2252Y-4.7047
X8.6252Y-4.7047
X8.2252Y-3.9567
X8.6252Y-3.9567
X1.4929Y-3.9567
X1.8929Y-3.9567
X8.9732Y-4.7047
X9.3732Y-4.7047
X6.7291Y-5.4528
X7.1291Y-5.4528
X7.4772Y-5.4528
X7.8772Y-5.4528
X9.7213Y-5.4528
X10.1213Y-5.4528
X6.7291Y-4.7047
X7.1291Y-4.7047
X4.485Y-4.7047
X4.885Y-4.7047
X3.737Y-4.7047
X4.137Y-4.7047
X7.4772Y-3.9567
X7.8772Y-3.9567
X8.9732Y-3.9567
X9.3732Y-3.9567
X9.7213Y-4.7047
X10.1213Y-4.7047
X2.989Y-4.7047
X3.389Y-4.7047
X2.2409Y-4.7047
X2.6409Y-4.7047
X5.9811Y-3.9567
X6.3811Y-3.9567
X8.9732Y-3.2087
X9.3732Y-3.2087
X1.4929Y-4.7047
X1.8929Y-4.7047
X5.2331Y-4.7047
X5.6331Y-4.7047
X8.2252Y-3.2087
X8.6252Y-3.2087
X4.485Y-5.4528
X4.885Y-5.4528
X3.737Y-5.4528
X4.137Y-5.4528
X5.2331Y-5.4528
X2.989Y-5.4528
X3.389Y-5.4528
X8.9732Y-5.4528
X9.3732Y-5.4528
X2.2409Y-5.4528
X2.6409Y-5.4528
X1.4929Y-5.4528
X1.8929Y-5.4528
X9.7213Y-3.2087
X10.1213Y-3.2087
X5.9811Y-4.7047
X6.3811Y-4.7047
X9.7213Y-3.9567
X10.1213Y-3.9567
X4.485Y-3.2087
X4.885Y-3.2087
X5.9811Y-3.2087
X6.3811Y-3.2087
X6.7291Y-3.2087
X7.1291Y-3.2087
X6.3811Y-5.4528
X3.737Y-3.2087
X4.137Y-3.2087
X5.2331Y-3.2087
X5.6331Y-3.2087
X2.989Y-3.2087
X3.389Y-3.2087
X8.2252Y-5.4528
X8.6252Y-5.4528
X2.2409Y-3.2087
X2.6409Y-3.2087
X1.4929Y-3.2087
X1.8929Y-3.2087
X5.2331Y-3.9567
X5.6331Y-3.9567
X4.485Y-3.9567
X4.885Y-3.9567
X7.4772Y-4.7047
X7.8772Y-4.7047
X6.7291Y-3.9567
X7.1291Y-3.9567
X3.737Y-3.9567
X4.137Y-3.9567
X7.4772Y-3.2087
X7.8772Y-3.2087
T2
X3.937Y-4.7047
X7.6772Y-3.9567
X9.1732Y-3.9567
X9.9213Y-4.7047
X5.8071Y-5.4528
X3.189Y-4.7047
X2.4409Y-4.7047
X6.1811Y-3.9567
X9.1732Y-3.2087
X1.6929Y-4.7047
X5.4331Y-4.7047
X8.4252Y-3.2087
X4.685Y-5.4528
X3.937Y-5.4528
X5.4331Y-5.4528
X3.189Y-5.4528
X9.1732Y-5.4528
X2.4409Y-5.4528
X1.6929Y-5.4528
X9.9213Y-3.2087
X6.1811Y-4.7047
X9.9213Y-3.9567
X4.685Y-3.2087
X6.1811Y-3.2087
X6.9291Y-3.2087
X6.1811Y-5.4528
X3.937Y-3.2087
X5.4331Y-3.2087
X3.189Y-3.2087
X8.4252Y-5.4528
X2.4409Y-3.2087
X1.6929Y-3.2087
X5.4331Y-3.9567
X4.685Y-3.9567
X7.6772Y-4.7047
X6.9291Y-3.9567
X3.937Y-3.9567
X7.6772Y-3.2087
X3.189Y-3.9567
X2.4409Y-3.9567
X8.4252Y-4.7047
X8.4252Y-3.9567
X1.6929Y-3.9567
X9.1732Y-4.7047
X6.9291Y-5.4528
X7.6772Y-5.4528
X9.9213Y-5.4528
X6.9291Y-4.7047
X4.685Y-4.7047
T1
X5.6398Y-5.4528G85X5.6004Y-5.4528
G05
X6.0138Y-5.4528G85X5.9744Y-5.4528
G05
T0
M30
