M48
;DRILL file {KiCad (5.0.2-5-10.14)} date Monday, March 11, 2019 at 03:43:50 PM
;FORMAT={-:-/ absolute / inch / decimal}
FMAT,2
INCH,TZ
T1C0.0157
T2C0.0276
T3C0.0430
T4C0.0433
T5C0.0591
T6C0.0945
%
G90
G05
T1
X1.9783Y-3.4488
X2.7264Y-3.4587
X3.4744Y-3.4685
X4.2323Y-3.4587
X4.9705Y-3.4587
X5.7185Y-3.4685
X6.4665Y-3.4646
X8.5925Y-2.9134
X8.6457Y-3.5236
X8.6457Y-3.6024
X8.6457Y-3.6811
X8.6614Y-3.4833
X8.6614Y-3.563
X8.6614Y-3.6417
X8.6614Y-3.7205
X8.9567Y-4.1929
X9.3996Y-4.5374
X9.4094Y-3.5039
X10.0197Y-3.6909
X10.0492Y-3.6614
X10.0787Y-3.6319
X10.1476Y-4.2618
X10.1476Y-5.0197
X10.2067Y-5.0098
X10.217Y-3.6713
X10.2466Y-3.7593
X10.2756Y-3.8287
T2
X9.0276Y-5.6299
X9.3346Y-5.6299
X9.0138Y-4.1339
X9.3209Y-4.1339
X9.7618Y-3.3858
X10.0689Y-3.3858
X3.0482Y-3.3957
X3.3553Y-3.3957
X1.5453Y-4.8819
X1.8524Y-4.8819
X5.2825Y-4.8819
X5.5896Y-4.8819
X8.2657Y-4.1339
X8.5728Y-4.1339
X9.7618Y-4.8819
X10.0689Y-4.8819
X9.7618Y-4.1339
X10.0689Y-4.1339
X3.7874Y-5.6299
X4.0945Y-5.6299
X6.0335Y-3.3858
X6.3406Y-3.3858
X7.5266Y-3.3858
X7.8337Y-3.3858
X2.2904Y-4.8819
X2.5974Y-4.8819
X6.7815Y-4.8819
X7.0886Y-4.8819
X4.5344Y-4.1339
X4.8415Y-4.1339
X3.7963Y-4.1339
X4.1033Y-4.1339
X3.0384Y-4.1339
X3.3455Y-4.1339
X1.5394Y-3.376
X1.8465Y-3.376
X3.7894Y-3.3858
X4.0965Y-3.3858
X5.2825Y-3.3957
X5.5896Y-3.3957
X7.5295Y-4.8819
X7.8366Y-4.8819
X6.7815Y-3.3957
X7.0886Y-3.3957
X1.5423Y-4.1339
X1.8494Y-4.1339
X3.0413Y-4.8819
X3.3484Y-4.8819
X8.2657Y-4.8819
X8.5728Y-4.8819
X6.7756Y-5.6299
X7.0827Y-5.6299
X2.2953Y-5.6299
X2.6024Y-5.6299
X5.6535Y-5.748
X5.9606Y-5.748
X6.7785Y-4.1339
X7.0856Y-4.1339
X4.5374Y-5.6299
X4.8445Y-5.6299
X9.7736Y-5.6299
X10.0807Y-5.6299
X5.2854Y-4.1339
X5.5925Y-4.1339
X9.0138Y-3.3858
X9.3209Y-3.3858
X4.5344Y-4.8819
X4.8415Y-4.8819
X2.3002Y-4.1339
X2.6073Y-4.1339
X7.5295Y-5.6299
X7.8366Y-5.6299
X7.5295Y-4.1339
X7.8366Y-4.1339
X5.2835Y-5.6299
X5.5906Y-5.6299
X2.2972Y-3.3858
X2.6043Y-3.3858
X1.5531Y-5.6299
X1.8602Y-5.6299
X3.0384Y-5.6299
X3.3455Y-5.6299
X6.0335Y-4.8819
X6.3406Y-4.8819
X3.7864Y-4.8917
X4.0935Y-4.8917
X6.0335Y-4.1339
X6.3406Y-4.1339
X6.0315Y-5.6299
X6.3386Y-5.6299
X9.0138Y-4.8819
X9.3209Y-4.8819
X8.2657Y-3.3858
X8.5728Y-3.3858
X8.2648Y-5.6299
X8.5719Y-5.6299
X4.5315Y-3.3858
X4.8386Y-3.3858
T3
X8.878Y-2.9539
X8.878Y-3.0539
X8.878Y-3.1539
X8.878Y-3.2539
X8.878Y-3.3539
X8.878Y-3.4539
X8.878Y-3.5539
X8.878Y-3.6539
X8.878Y-3.7539
X8.878Y-3.8539
X8.878Y-3.9539
X8.878Y-4.0539
X9.478Y-2.9539
X9.478Y-3.0539
X9.478Y-3.1539
X9.478Y-3.2539
X9.478Y-3.3539
X9.478Y-3.4539
X9.478Y-3.5539
X9.478Y-3.6539
X9.478Y-3.7539
X9.478Y-3.8539
X9.478Y-3.9539
X9.478Y-4.0539
T4
X9.439Y-4.252
X9.439Y-4.4291
X9.6949Y-4.252
X9.6949Y-4.4291
T6
X10.1969Y-5.7283
X10.1969Y-2.9331
X1.4173Y-5.7283
X1.4173Y-2.9331
X4.311Y-4.3307
X7.3031Y-4.3307
T5
X4.5866Y-3.0315G85X4.5851Y-3.0087
G05
X4.8351Y-3.1087G85X4.8031Y-3.0512
G05
X6.0827Y-3.0315G85X6.0811Y-3.0087
G05
X6.3311Y-3.1087G85X6.2992Y-3.0512
G05
X6.8307Y-3.0315G85X6.8291Y-3.0087
G05
X7.0792Y-3.1087G85X7.0472Y-3.0512
G05
X6.0827Y-5.2756G85X6.0811Y-5.2528
G05
X6.3311Y-5.3528G85X6.2992Y-5.2953
G05
X3.8386Y-3.0315G85X3.837Y-3.0087
G05
X4.087Y-3.1087G85X4.0551Y-3.0512
G05
X5.3346Y-3.0315G85X5.3331Y-3.0087
G05
X5.5831Y-3.1087G85X5.5512Y-3.0512
G05
X3.0905Y-3.0315G85X3.089Y-3.0087
G05
X3.339Y-3.1087G85X3.3071Y-3.0512
G05
X8.3268Y-5.2756G85X8.3252Y-5.2528
G05
X8.5752Y-5.3528G85X8.5433Y-5.2953
G05
X2.3425Y-3.0315G85X2.341Y-3.0087
G05
X2.591Y-3.1087G85X2.559Y-3.0512
G05
X1.5945Y-3.0315G85X1.5929Y-3.0087
G05
X1.8429Y-3.1087G85X1.811Y-3.0512
G05
X5.3346Y-3.7795G85X5.3331Y-3.7567
G05
X5.5831Y-3.8567G85X5.5512Y-3.7992
G05
X4.5866Y-3.7795G85X4.5851Y-3.7567
G05
X4.8351Y-3.8567G85X4.8031Y-3.7992
G05
X7.5787Y-4.5275G85X7.5772Y-4.5048
G05
X7.8272Y-4.6047G85X7.7953Y-4.5472
G05
X6.8307Y-3.7795G85X6.8291Y-3.7567
G05
X7.0792Y-3.8567G85X7.0472Y-3.7992
G05
X3.8386Y-3.7795G85X3.837Y-3.7567
G05
X4.087Y-3.8567G85X4.0551Y-3.7992
G05
X7.5787Y-3.0315G85X7.5772Y-3.0087
G05
X7.8272Y-3.1087G85X7.7953Y-3.0512
G05
X3.0905Y-3.7795G85X3.089Y-3.7567
G05
X3.339Y-3.8567G85X3.3071Y-3.7992
G05
X2.3425Y-3.7795G85X2.341Y-3.7567
G05
X2.591Y-3.8567G85X2.559Y-3.7992
G05
X8.3268Y-4.5275G85X8.3252Y-4.5048
G05
X8.5752Y-4.6047G85X8.5433Y-4.5472
G05
X8.3268Y-3.7795G85X8.3252Y-3.7567
G05
X8.5752Y-3.8567G85X8.5433Y-3.7992
G05
X1.5945Y-3.7795G85X1.5929Y-3.7567
G05
X1.8429Y-3.8567G85X1.811Y-3.7992
G05
X9.0748Y-4.5275G85X9.0732Y-4.5048
G05
X9.3232Y-4.6047G85X9.2913Y-4.5472
G05
X6.8307Y-5.2756G85X6.8291Y-5.2528
G05
X7.0792Y-5.3528G85X7.0472Y-5.2953
G05
X7.5787Y-5.2756G85X7.5772Y-5.2528
G05
X7.8272Y-5.3528G85X7.7953Y-5.2953
G05
X9.8228Y-5.2756G85X9.8213Y-5.2528
G05
X10.0713Y-5.3528G85X10.0394Y-5.2953
G05
X6.8307Y-4.5275G85X6.8291Y-4.5048
G05
X7.0792Y-4.6047G85X7.0472Y-4.5472
G05
X4.5866Y-4.5275G85X4.5851Y-4.5048
G05
X4.8351Y-4.6047G85X4.8031Y-4.5472
G05
X3.8386Y-4.5275G85X3.837Y-4.5048
G05
X4.087Y-4.6047G85X4.0551Y-4.5472
G05
X7.5787Y-3.7795G85X7.5772Y-3.7567
G05
X7.8272Y-3.8567G85X7.7953Y-3.7992
G05
X9.0748Y-3.7795G85X9.0732Y-3.7567
G05
X9.3232Y-3.8567G85X9.2913Y-3.7992
G05
X9.8228Y-4.5275G85X9.8213Y-4.5048
G05
X10.0713Y-4.6047G85X10.0394Y-4.5472
G05
X5.7087Y-5.2756G85X5.7071Y-5.2528
G05
X5.9571Y-5.3528G85X5.9252Y-5.2953
G05
X3.0905Y-4.5275G85X3.089Y-4.5048
G05
X3.339Y-4.6047G85X3.3071Y-4.5472
G05
X2.3425Y-4.5275G85X2.341Y-4.5048
G05
X2.591Y-4.6047G85X2.559Y-4.5472
G05
X6.0827Y-3.7795G85X6.0811Y-3.7567
G05
X6.3311Y-3.8567G85X6.2992Y-3.7992
G05
X9.0748Y-3.0315G85X9.0732Y-3.0087
G05
X9.3232Y-3.1087G85X9.2913Y-3.0512
G05
X1.5945Y-4.5275G85X1.5929Y-4.5048
G05
X1.8429Y-4.6047G85X1.811Y-4.5472
G05
X5.3346Y-4.5275G85X5.3331Y-4.5048
G05
X5.5831Y-4.6047G85X5.5512Y-4.5472
G05
X8.3268Y-3.0315G85X8.3252Y-3.0087
G05
X8.5752Y-3.1087G85X8.5433Y-3.0512
G05
X4.5866Y-5.2756G85X4.5851Y-5.2528
G05
X4.8351Y-5.3528G85X4.8031Y-5.2953
G05
X3.8386Y-5.2756G85X3.837Y-5.2528
G05
X4.087Y-5.3528G85X4.0551Y-5.2953
G05
X5.3346Y-5.2756G85X5.3331Y-5.2528
G05
X5.5831Y-5.3528G85X5.5512Y-5.2953
G05
X3.0905Y-5.2756G85X3.089Y-5.2528
G05
X3.339Y-5.3528G85X3.3071Y-5.2953
G05
X9.0748Y-5.2756G85X9.0732Y-5.2528
G05
X9.3232Y-5.3528G85X9.2913Y-5.2953
G05
X2.3425Y-5.2756G85X2.341Y-5.2528
G05
X2.591Y-5.3528G85X2.559Y-5.2953
G05
X1.5945Y-5.2756G85X1.5929Y-5.2528
G05
X1.8429Y-5.3528G85X1.811Y-5.2953
G05
X9.8228Y-3.0315G85X9.8213Y-3.0087
G05
X10.0713Y-3.1087G85X10.0394Y-3.0512
G05
X6.0827Y-4.5275G85X6.0811Y-4.5048
G05
X6.3311Y-4.6047G85X6.2992Y-4.5472
G05
X9.8228Y-3.7795G85X9.8213Y-3.7567
G05
X10.0713Y-3.8567G85X10.0394Y-3.7992
G05
T0
M30
